<svg xmlns="http://www.w3.org/2000/svg" width="53.333" height="44.444" viewBox="0 0 53.333 44.444">
  <path id="display-frame" d="M47.222,2H6.111A6.108,6.108,0,0,0,0,8.111V40.333a6.108,6.108,0,0,0,6.111,6.111H47.222a6.108,6.108,0,0,0,6.111-6.111V8.111A6.108,6.108,0,0,0,47.222,2ZM16.667,13.111H13.333a2.224,2.224,0,0,0-2.222,2.222v3.333a2.222,2.222,0,0,1-4.444,0V15.333a6.675,6.675,0,0,1,6.667-6.667h3.333a2.222,2.222,0,1,1,0,4.444Zm30,20A6.675,6.675,0,0,1,40,39.778H36.666a2.222,2.222,0,0,1,0-4.444H40a2.224,2.224,0,0,0,2.222-2.222V29.778a2.222,2.222,0,1,1,4.444,0Z" transform="translate(0 -2)" fill="#fffaf3"/>
</svg>
